<?xml version="1.0" encoding="UTF-8"?>
<!-- Created with Inkscape (http://www.inkscape.org/) -->
<svg width="700" height="700" version="1.1" viewBox="0 0 700 700" xml:space="preserve" xmlns="http://www.w3.org/2000/svg"><g><path d="m404.2 655.18v-17h34v34h-34zm-71.333-37.667c-0.36667-0.36666-0.66667-18.817-0.66667-41v-40.333h82v82h-40.333c-22.183 0-40.633-0.3-41-0.66667zm-66.667-71.333v-21h42v42h-42zm-64-32.093c-17.496-1.1564-28.932-3.4557-45.5-9.1478-59.841-20.559-105.06-74.162-114.94-136.26-2.2655-14.234-2.8929-30.848-1.6351-43.299 4.2444-42.014 19.345-75.375 47.488-104.92 15.803-16.587 29.766-26.926 50.088-37.088 6.6567-3.3286 24.302-10.198 26.196-10.198 0.29525 0 0.24487 2.8125-0.11195 6.25s-0.71097 11.447-0.78699 17.8l-0.13822 11.55-8.4825 3.9029c-25.225 11.606-50.076 34.61-63.692 58.958-7.836 14.012-15.191 36.521-17.005 52.039-1.1858 10.147-0.68398 29.681 1.0138 39.466 1.9297 11.122 8.0195 30.136 12.517 39.082 9.9709 19.832 29.052 41.839 46.489 53.617 49.289 33.293 109.85 33.494 159.5 0.52833 4.675-3.1039 12.127-9.1223 16.56-13.374l8.0601-7.7309 23.81 23.872-3.465 3.6014c-1.9057 1.9808-7.065 6.6514-11.465 10.379-34.828 29.506-78.828 43.984-124.5 40.966zm279.5 0.47114c-31.61-2.3157-59.382-11.993-86.368-30.095-13.236-8.8786-21.325-16.505-91.446-86.225-24.648-24.507-45.997-46.545-47.442-48.974-3.0636-5.1476-3.4829-11.905-1.0291-16.584 0.86529-1.65 15.234-16.6 31.929-33.223l30.356-30.223 23.987 23.943-46.987 47.036 55 54.827c59.986 59.797 62.216 61.711 84.113 72.194 19.145 9.1656 37.892 13.283 60.387 13.262 16.178-0.0149 26.777-1.6504 41.722-6.4376 43.017-13.78 76.718-46.905 90.767-89.218 4.9603-14.939 6.5504-23.547 7.2089-39.025 2.6768-62.917-36.858-119.39-97.482-139.25-14.15-4.6353-26.702-6.4931-43.618-6.4558-36.706 0.081-67.272 12.313-96.192 38.494l-7.0932 6.4215-23.814-23.977 8.2969-7.9218c21.323-20.359 51.177-36.395 79.703-42.811 15.973-3.5929 23.69-4.434 40-4.3595 34.284 0.1567 62.569 7.9794 90.5 25.029 33.458 20.424 59.698 52.375 73.442 89.427 11.606 31.289 13.657 69.704 5.459 102.27-7.5877 30.142-24.105 58.919-46.612 81.209-23.23 23.006-45.607 35.76-80.288 45.762-11.82 3.4088-40.143 5.959-54.5 4.9072zm-141.5-18.378v-11h22v22h-22zm37.501-96.999-11.977-12.009 46.965-46.997-51.494-51.565c-61.746-61.831-65.66-65.207-87.494-75.468-12.353-5.8049-20.517-8.5184-32.627-10.844l-9.3733-1.8 0.15192-10.41c0.0836-5.7252 0.80212-13.11 1.5968-16.41l1.4449-6 5.4032 0.34294c7.9089 0.50198 26.193 5.363 38.057 10.118 12.534 5.0234 30.327 15.06 41.272 23.282 10.343 7.7689 130.27 127.05 132.18 131.48 1.8026 4.1663 1.7817 11.648-0.042 15.082-0.78881 1.4852-15.081 16.315-31.761 32.955l-30.327 30.255zm89.794-72.751c-1.2061-2.6125-5.8577-8.6929-10.337-13.512l-8.1439-8.7619 7.4744-7.9453c20.096-21.363 33.015-47.847 37.272-76.413l0.57856-3.8818 8.18 0.67197c8.0117 0.65814 24.162 3.7408 25.239 4.8173 1.0101 1.01-4.7049 26.078-8.0552 35.334-9.5088 26.269-21.733 45.755-41.208 65.691-4.7013 4.8125-8.6063 8.75-8.6777 8.75-0.0714 0-1.1167-2.1375-2.3228-4.75zm-237.81-4.5c-32.978-35.398-49.572-76.154-49.557-121.72 0.0158-47.905 17.269-89.857 50.949-123.89 24.094-24.343 54.37-40.754 89.12-48.307 9.1975-1.999 13.353-2.2856 33.5-2.31 19.929-0.02416 24.469 0.27052 34 2.2067 15.377 3.1237 27.962 7.3742 42.36 14.307 15.336 7.3842 29.375 16.833 41.735 27.965 16.876 15.198 30.622 33.533 40.264 54.029 4.9752 10.577 10.747 25.74 10.03 26.351-0.21415 0.18257-3.0894-0.0167-6.3894-0.44293-3.3-0.42618-11.302-0.81285-17.783-0.85926l-11.783-0.0844-4.4423-9.5712c-8.6139-18.559-26.681-40.52-43.485-52.857-34.082-25.022-77.224-33.459-118.02-23.08-26.53 6.7493-44.703 17.152-64.568 36.96-20.413 20.354-32.881 42.954-38.924 70.548-2.5954 11.852-3.1182 37.583-1.0188 50.139 4.7912 28.653 16.543 52.842 35.527 73.123l8.2019 8.7624-8.471 8.9015c-4.659 4.8958-9.47 10.965-10.691 13.488-1.221 2.5223-2.3659 4.586-2.5442 4.586-0.17829 0-3.7829-3.7125-8.0103-8.25z" display="none"/><g fill="#60a5fa" stroke="#60a5fa"><path d="m229.33 320.12c-21.385-22.86-36.404-50.062-43.785-79.301-4.4114-17.475-5.5005-49.362-2.3681-69.339 5.6447-36 21.94-67.369 49.185-94.684 20.682-20.735 43.592-34.776 70.714-43.34 19.89-6.2805 24.623-6.9097 51.639-6.865 22.01 0.03636 26.685 0.40028 36.885 2.871 51.881 12.567 95.811 46.69 117.85 91.539 6.0665 12.344 12.035 27.492 11.114 28.208-0.26557 0.20666-7.9756 0.13268-17.133-0.1644l-16.65-0.54015-5.9013-11.571c-11.276-22.109-31.919-44.945-51.549-57.026-21.456-13.204-42.829-19.555-69.085-20.528-43.18-1.5999-78.774 12.928-108.28 44.194-17.34 18.377-28.267 38.062-34.594 62.323-2.6977 10.344-3.0744 14.38-3.1066 33.287-0.0328 19.237 0.29729 22.782 3.1158 33.468 6.6436 25.188 17.388 45.242 33.247 62.053l8.0792 8.5643-6.1527 6.0516c-3.384 3.3284-8.1561 8.9563-10.605 12.506-2.4486 3.5502-4.5732 6.4549-4.7214 6.4549s-3.7051-3.6728-7.9043-8.1617z"/><path d="m341.19 496.11v-10.451h20.902v20.902h-20.902z" stroke-width="1.2295"/><path d="m405.12 655.33v-15.984h31.967v31.967h-31.967z" stroke-width="1.2295"/></g><g fill="#2563eb" stroke="#2563eb" stroke-width="1.2295"><path d="m192.42 512.56c-73.344-8.3941-136.27-68.018-149.64-141.79-2.8197-15.555-2.7869-45.635 0.06646-60.932 2.841-15.232 9.1219-33.919 15.97-47.513 14.74-29.264 41.735-57.497 70.194-73.415 9.0853-5.0817 30.261-14.317 32.828-14.317 1.1727 0 1.4735 27.284 0.34713 31.48-0.44672 1.6641-3.3977 3.8563-8.2755 6.1475-18.92 8.8874-42.627 28.373-54.717 44.975-10.818 14.854-18.647 32.527-23.855 53.848-3.889 15.919-3.5133 44.061 0.81248 60.864 4.1077 15.956 8.5867 27.756 14.009 36.907 22.134 37.356 55.072 61.238 96.73 70.134 13.106 2.7988 40.789 2.832 53.484 0.0641 27.601-6.0182 50-17.341 68.875-34.817l8.7746-8.124 22.555 22.695-9.5637 9.0881c-35.673 33.899-87.358 50.572-138.59 44.709z"/><path d="m333.36 614.45c-0.40775-1.5215-0.74892-19.503-0.75815-39.959l-0.0168-37.193h81.148v79.918h-79.631z"/><path d="m377.45 398.35-11.021-11.072 47.347-47.394-50.741-50.428c-50.764-50.45-61.548-60.553-72.658-68.069-12.206-8.257-34.161-17.004-49.608-19.765l-8.6806-1.5513 0.5651-11.205c0.3108-6.1629 1.1075-13.352 1.7705-15.975l1.2054-4.7693 6.5031 0.76431c20.979 2.4656 53.217 16.068 74.705 31.52 4.2316 3.043 36.289 34.027 71.238 68.852 68.223 67.982 65.73 65.04 63.785 75.25-0.42608 2.2367-10.469 13.395-30.707 34.119-16.541 16.937-30.661 30.795-31.378 30.795-0.71707 0-6.2633-4.9826-12.325-11.072z"/></g><g stroke-width="1.2295"><path d="m467.58 325.46c-1.0624-2.2278-4.6321-7.069-7.9328-10.758-10.464-11.696-10.317-9.9406-1.615-19.243 17.606-18.821 30.797-45.063 35.583-70.787l1.5483-8.3225 6.3113 0.72583c8.0636 0.92734 24.402 4.0921 25.189 4.8791 0.33113 0.33112-0.0527 4.1556-0.85301 8.4989-4.0655 22.064-13.94 46.277-26.565 65.14-6.5102 9.7269-27.082 33.917-28.844 33.917-0.48944 0-1.7591-1.8228-2.8215-4.0506z" fill="#60a5fa" stroke="#60a5fa"/><path d="m466.14 512.08c-30.203-4.9244-60.318-18.91-84.337-39.166-5.7243-4.8274-36.212-34.505-67.75-65.949-50.933-50.782-57.482-57.746-58.599-62.308-0.69124-2.8248-0.96826-6.6454-0.61561-8.4902 0.43907-2.2969 10.443-13.274 31.737-34.823l31.096-31.469 11.149 11.046c6.1318 6.0755 11.008 11.446 10.835 11.934-0.17258 0.48851-10.411 11.112-22.752 23.607-12.341 12.495-22.439 23.239-22.439 23.874 0 2.2664 105.54 105.64 115.68 113.31 12.921 9.7694 31.663 18.841 47.426 22.955 14.658 3.8255 43.376 5.3046 58.184 2.9966 20.817-3.2446 46.846-14.554 63.952-27.788 9.4746-7.3297 24.411-23.105 30.675-32.4 17.945-26.624 26.672-61.045 23.466-92.557-3.4383-33.802-16.838-62.254-40.511-86.02-29.919-30.036-71.447-44.88-113.61-40.606-19.54 1.981-31.168 5.2858-48.18 13.694-13.465 6.655-18.491 10.136-39.055 27.049l-3.725 3.0637-21.97-23.341 8.3997-7.6849c23.545-21.541 53.862-36.91 85.731-43.461 16.207-3.3312 44.993-3.554 62.833-0.48626 33.723 5.7991 64.224 21.439 89.392 45.84 16.299 15.801 26.341 29.42 36.001 48.824 13.86 27.841 18.467 49.761 17.44 82.992-0.65254 21.12-2.1704 30.44-7.7099 47.336-13.774 42.015-47.293 81.256-85.943 100.62-13.673 6.8492-32.913 13.587-46.376 16.24-14.252 2.8092-46.539 3.4333-60.432 1.1682z" fill="#60a5fa" stroke="#60a5fa"/><path d="m470.1 511.82c-26.753-3.5982-53.087-14.219-77.033-31.067-9.9712-7.016-95.425-89.792-120.66-116.88-17.144-18.402-19.404-22.544-15.905-29.152 0.93067-1.758 15.072-16.791 31.425-33.406l29.733-30.21 21.455 21.308-22.018 22.866c-12.11 12.576-22.221 23.813-22.469 24.971-0.30707 1.4342 12.037 14.416 38.73 40.731 74.648 73.593 82.739 80.396 107.73 90.584 17.59 7.1709 25.314 8.3847 53.787 8.452 24.199 0.0573 25.647-0.0772 36.27-3.3678 13.505-4.1831 33.317-13.488 43.628-20.49 9.549-6.4846 25.993-22.665 33.752-33.21 10.986-14.932 20.177-36.68 24.162-57.172 2.1637-11.128 2.1676-40.571 6e-3 -51.639-4.1903-21.468-12.508-40.637-24.805-57.168-32.497-43.687-84.126-64.502-138.61-55.883-23.062 3.6479-43.899 13.224-65.51 30.106-7.7079 6.0214-14.353 10.964-14.767 10.983-0.41398 0.0194-5.3101-4.7119-10.88-10.514l-10.128-10.549 2.8884-3.1087c5.3664-5.7756 22.498-18.935 32.759-25.163 17.86-10.84 37.029-18.241 59.518-22.978 15.531-3.2716 48.427-2.8436 65.817 0.85631 34.14 7.2639 64.248 24.381 89.681 50.984 23.416 24.493 40.235 57.449 45.353 88.866 2.2851 14.027 2.534 40.339 0.53525 56.579-2.484 20.182-13.084 47.303-26.135 66.865-24.522 36.759-57.3 60.78-99.7 73.068-19.272 5.5847-47.7 7.5461-68.61 4.7337z" fill="#1e40af" stroke="#1e40af"/><path d="m267.42 546.52v-20.287h40.574v40.574h-40.574z" fill="#1e40af" stroke="#1e40af"/></g></g></svg>
